<?xml version="1.0" standalone="no"?>
<!DOCTYPE svg PUBLIC "-//W3C//DTD SVG 20010904//EN"
 "http://www.w3.org/TR/2001/REC-SVG-20010904/DTD/svg10.dtd">
<svg version="1.0" xmlns="http://www.w3.org/2000/svg"
 width="152.000000pt" height="152.000000pt" viewBox="0 0 152.000000 152.000000"
 preserveAspectRatio="xMidYMid meet">
<metadata>
Created by potrace 1.14, written by Peter Selinger 2001-2017
</metadata>
<g transform="translate(0.000000,152.000000) scale(0.100000,-0.100000)"
fill="#000000" stroke="none">
<path d="M49 1078 c-3 -74 -4 -626 0 -640 2 -14 14 -18 47 -18 l44 0 1 273 1
272 39 -115 c21 -63 39 -115 39 -115 0 0 24 -70 53 -155 l53 -155 44 -3 45 -3
53 158 c30 87 57 167 62 178 4 11 20 56 35 100 15 44 31 83 34 87 3 4 6 -112
5 -258 l-1 -265 46 3 46 3 0 338 0 338 -64 -3 -64 -3 -94 -274 c-51 -151 -95
-276 -96 -278 -2 -1 -45 123 -97 277 l-93 280 -69 0 c-64 0 -68 -1 -69 -22z"/>
<path d="M757 1093 c-2 -5 -3 -156 -3 -338 l1 -330 48 -3 47 -3 0 340 0 341
-44 0 c-25 0 -47 -3 -49 -7z"/>
<path d="M927 1093 c-2 -5 -3 -156 -3 -338 l1 -330 48 -3 47 -3 0 340 0 341
-44 0 c-25 0 -47 -3 -49 -7z"/>
<path d="M1077 1093 c-2 -5 -3 -156 -3 -338 l1 -330 209 -3 c144 -2 212 1 216
9 4 6 4 25 1 42 l-7 32 -159 0 -160 1 -3 297 -2 297 -45 0 c-24 0 -46 -3 -48
-7z"/>
</g>
</svg>
